<?xml version="1.0" encoding="UTF-8" standalone="no"?>
<!DOCTYPE svg PUBLIC "-//W3C//DTD SVG 1.1//EN"
 "http://www.w3.org/Graphics/SVG/1.1/DTD/svg11.dtd">
<!-- Generated by graphviz version 14.1.5 (20260411.2331)
 -->
<!-- Title: classes_life_detectors Pages: 1 -->
<svg width="1123pt" height="118pt"
 viewBox="0.00 0.00 1123.00 118.00" xmlns="http://www.w3.org/2000/svg" xmlns:xlink="http://www.w3.org/1999/xlink">
<g id="graph0" class="graph" transform="scale(1 1) rotate(0) translate(4 114)">
<title>classes_life_detectors</title>
<polygon fill="white" stroke="none" points="-4,4 -4,-114 1118.62,-114 1118.62,4 -4,4"/>
<!-- sim_pipeline.modules.core.astrophysical.AstrophysicalSources -->
<g id="node1" class="node">
<title>sim_pipeline.modules.core.astrophysical.AstrophysicalSources</title>
<polygon fill="none" stroke="black" points="0,-0.5 0,-36.5 133.75,-36.5 133.75,-0.5 0,-0.5"/>
<text xml:space="preserve" text-anchor="start" x="8" y="-14" font-family="Times,serif" font-size="14.00">AstrophysicalSources</text>
</g>
<!-- sim_pipeline.modules.utils.validator.ConfigValidator -->
<g id="node2" class="node">
<title>sim_pipeline.modules.utils.validator.ConfigValidator</title>
<polygon fill="none" stroke="black" points="151.38,-0.5 151.38,-36.5 254.38,-36.5 254.38,-0.5 151.38,-0.5"/>
<text xml:space="preserve" text-anchor="start" x="159.38" y="-14" font-family="Times,serif" font-size="14.00">ConfigValidator</text>
</g>
<!-- sim_pipeline.modules.core.instrumental.detector.Detector -->
<g id="node3" class="node">
<title>sim_pipeline.modules.core.instrumental.detector.Detector</title>
<polygon fill="none" stroke="black" points="272.62,-0.5 272.62,-36.5 335.12,-36.5 335.12,-0.5 272.62,-0.5"/>
<text xml:space="preserve" text-anchor="start" x="280.62" y="-14" font-family="Times,serif" font-size="14.00">Detector</text>
</g>
<!-- sim_pipeline.modules.core.instrumental.dispersion.DispersionLaw -->
<g id="node4" class="node">
<title>sim_pipeline.modules.core.instrumental.dispersion.DispersionLaw</title>
<polygon fill="none" stroke="black" points="353.62,-0.5 353.62,-36.5 452.12,-36.5 452.12,-0.5 353.62,-0.5"/>
<text xml:space="preserve" text-anchor="start" x="361.62" y="-14" font-family="Times,serif" font-size="14.00">DispersionLaw</text>
</g>
<!-- sim_pipeline.modules.core.instrumental.pipeline.InstrumentDepTerms -->
<g id="node5" class="node">
<title>sim_pipeline.modules.core.instrumental.pipeline.InstrumentDepTerms</title>
<polygon fill="none" stroke="black" points="470.38,-0.5 470.38,-36.5 603.38,-36.5 603.38,-0.5 470.38,-0.5"/>
<text xml:space="preserve" text-anchor="start" x="478.38" y="-14" font-family="Times,serif" font-size="14.00">InstrumentDepTerms</text>
</g>
<!-- sim_pipeline.modules.core.instrumental.tables.TablesMixin -->
<g id="node10" class="node">
<title>sim_pipeline.modules.core.instrumental.tables.TablesMixin</title>
<polygon fill="none" stroke="black" points="385,-73.5 385,-109.5 470.75,-109.5 470.75,-73.5 385,-73.5"/>
<text xml:space="preserve" text-anchor="start" x="393" y="-87" font-family="Times,serif" font-size="14.00">TablesMixin</text>
</g>
<!-- sim_pipeline.modules.core.instrumental.pipeline.InstrumentDepTerms&#45;&gt;sim_pipeline.modules.core.instrumental.tables.TablesMixin -->
<g id="edge1" class="edge">
<title>sim_pipeline.modules.core.instrumental.pipeline.InstrumentDepTerms&#45;&gt;sim_pipeline.modules.core.instrumental.tables.TablesMixin</title>
<path fill="none" stroke="black" d="M510.21,-36.87C496.35,-45.89 479.22,-57.06 464.17,-66.86"/>
<polygon fill="none" stroke="black" points="462.38,-63.85 455.91,-72.24 466.2,-69.71 462.38,-63.85"/>
</g>
<!-- sim_pipeline.modules.core.instrumental.transfer.TransferMixin -->
<g id="node11" class="node">
<title>sim_pipeline.modules.core.instrumental.transfer.TransferMixin</title>
<polygon fill="none" stroke="black" points="489.12,-73.5 489.12,-109.5 584.62,-109.5 584.62,-73.5 489.12,-73.5"/>
<text xml:space="preserve" text-anchor="start" x="497.12" y="-87" font-family="Times,serif" font-size="14.00">TransferMixin</text>
</g>
<!-- sim_pipeline.modules.core.instrumental.pipeline.InstrumentDepTerms&#45;&gt;sim_pipeline.modules.core.instrumental.transfer.TransferMixin -->
<g id="edge2" class="edge">
<title>sim_pipeline.modules.core.instrumental.pipeline.InstrumentDepTerms&#45;&gt;sim_pipeline.modules.core.instrumental.transfer.TransferMixin</title>
<path fill="none" stroke="black" d="M536.88,-36.69C536.88,-44.27 536.88,-53.4 536.88,-61.96"/>
<polygon fill="none" stroke="black" points="533.38,-61.96 536.88,-71.96 540.38,-61.96 533.38,-61.96"/>
</g>
<!-- sim_pipeline.modules.core.instrumental.transmission.TransmissionMixin -->
<g id="node13" class="node">
<title>sim_pipeline.modules.core.instrumental.transmission.TransmissionMixin</title>
<polygon fill="none" stroke="black" points="602.25,-73.5 602.25,-109.5 725.5,-109.5 725.5,-73.5 602.25,-73.5"/>
<text xml:space="preserve" text-anchor="start" x="610.25" y="-87" font-family="Times,serif" font-size="14.00">TransmissionMixin</text>
</g>
<!-- sim_pipeline.modules.core.instrumental.pipeline.InstrumentDepTerms&#45;&gt;sim_pipeline.modules.core.instrumental.transmission.TransmissionMixin -->
<g id="edge3" class="edge">
<title>sim_pipeline.modules.core.instrumental.pipeline.InstrumentDepTerms&#45;&gt;sim_pipeline.modules.core.instrumental.transmission.TransmissionMixin</title>
<path fill="none" stroke="black" d="M567.94,-36.87C584.55,-46.15 605.2,-57.7 623.08,-67.69"/>
<polygon fill="none" stroke="black" points="620.93,-70.5 631.37,-72.33 624.35,-64.39 620.93,-70.5"/>
</g>
<!-- sim_pipeline.modules.core.instrumental.channels.OutputChannel -->
<g id="node6" class="node">
<title>sim_pipeline.modules.core.instrumental.channels.OutputChannel</title>
<polygon fill="none" stroke="black" points="621.62,-0.5 621.62,-36.5 720.12,-36.5 720.12,-0.5 621.62,-0.5"/>
<text xml:space="preserve" text-anchor="start" x="629.62" y="-14" font-family="Times,serif" font-size="14.00">OutputChannel</text>
</g>
<!-- sim_pipeline.modules.core.calculator.s2n_cube.S2NCube -->
<g id="node7" class="node">
<title>sim_pipeline.modules.core.calculator.s2n_cube.S2NCube</title>
<polygon fill="none" stroke="black" points="738.62,-0.5 738.62,-36.5 807.12,-36.5 807.12,-0.5 738.62,-0.5"/>
<text xml:space="preserve" text-anchor="start" x="746.62" y="-14" font-family="Times,serif" font-size="14.00">S2NCube</text>
</g>
<!-- sim_pipeline.modules.data.spectra.SpectralData -->
<g id="node8" class="node">
<title>sim_pipeline.modules.data.spectra.SpectralData</title>
<polygon fill="none" stroke="black" points="825,-0.5 825,-36.5 910.75,-36.5 910.75,-0.5 825,-0.5"/>
<text xml:space="preserve" text-anchor="start" x="833" y="-14" font-family="Times,serif" font-size="14.00">SpectralData</text>
</g>
<!-- sim_pipeline.modules.pipeline_registry.StageSpec -->
<g id="node9" class="node">
<title>sim_pipeline.modules.pipeline_registry.StageSpec</title>
<polygon fill="none" stroke="black" points="928.75,-0.5 928.75,-36.5 1001,-36.5 1001,-0.5 928.75,-0.5"/>
<text xml:space="preserve" text-anchor="start" x="936.75" y="-14" font-family="Times,serif" font-size="14.00">StageSpec</text>
</g>
<!-- sim_pipeline.modules.core.instrumental.aperture.TransferMixin -->
<g id="node12" class="node">
<title>sim_pipeline.modules.core.instrumental.aperture.TransferMixin</title>
<polygon fill="none" stroke="black" points="1019.12,-0.5 1019.12,-36.5 1114.62,-36.5 1114.62,-0.5 1019.12,-0.5"/>
<text xml:space="preserve" text-anchor="start" x="1027.12" y="-14" font-family="Times,serif" font-size="14.00">TransferMixin</text>
</g>
</g>
</svg>
